<?xml version="1.0" standalone="no"?>
<!DOCTYPE svg PUBLIC "-//W3C//DTD SVG 20010904//EN"
 "http://www.w3.org/TR/2001/REC-SVG-20010904/DTD/svg10.dtd">
<svg version="1.0" xmlns="http://www.w3.org/2000/svg"
 width="1000.000000pt" height="1000.000000pt" viewBox="0 0 1000.000000 1000.000000"
 preserveAspectRatio="xMidYMid meet">
<metadata>
Created by potrace 1.14, written by Peter Selinger 2001-2017
</metadata>
<g transform="translate(0.000000,1000.000000) scale(0.100000,-0.100000)"
fill="#000000" stroke="none">
<path d="M3460 5758 c0 -1161 -4 -1813 -11 -1888 -25 -278 -73 -407 -198 -530
-136 -135 -297 -195 -521 -194 -218 1 -358 52 -485 177 -87 86 -142 191 -180
342 -27 106 -55 297 -55 375 0 88 60 86 -497 9 l-83 -11 0 -98 c0 -269 59
-549 156 -742 105 -209 266 -370 474 -475 212 -107 524 -158 814 -134 378 32
657 150 867 368 186 193 280 418 335 808 16 109 18 286 21 1943 l4 1822 -321
0 -320 0 0 -1772z"/>
<path d="M4760 5095 l0 -2435 320 0 320 0 0 994 0 995 803 4 c520 3 832 8 887
16 364 48 628 136 828 274 138 95 298 289 392 476 174 348 206 814 79 1194
-63 189 -166 363 -297 499 -208 216 -494 340 -895 388 -188 23 -528 30 -1464
30 l-973 0 0 -2435z m2360 1852 c224 -34 375 -117 502 -275 73 -92 131 -210
159 -327 29 -114 32 -358 6 -471 -82 -362 -302 -555 -722 -636 -105 -20 -147
-21 -887 -25 l-778 -4 0 881 0 882 808 -5 c666 -4 825 -7 912 -20z"/>
</g>
</svg>
